<svg aria-hidden="true" style="width:0;height:0;position:absolute;overflow:hidden" xmlns="http://www.w3.org/2000/svg"><defs><symbol id="logo" viewBox="0 0 122 104"><path d="M60.5 0 29 18.19v36.378l31.5 18.19L92 54.568V18.19L60.5 0Zm24.537 50.59L60.453 64.752 35.916 50.59V22.168L60.5 7.958l24.584 14.21V50.59h-.047Z" fill="#0F0F0F"/><path d="M79.163 25.437V47.32l-12.931 7.626V42.868H54.769v12.08L41.837 47.32V25.437l12.931-7.627v12.411h11.464v-12.41l12.931 7.626ZM15.311 103.689h-3.653v-7.15H3.614v7.15H0V86.707h3.614v6.684h8.006v-6.684h3.653v16.982h.038ZM35.13 103.689H23.122V86.707H35.13v3.186h-8.394v3.575h8.239v3.187h-8.239v3.847h8.394v3.187ZM50.637 104c-2.565 0-4.741-.816-6.451-2.448-1.71-1.633-2.604-3.731-2.604-6.335 0-2.603.855-4.702 2.604-6.334 1.71-1.632 3.886-2.448 6.45-2.448 3.187 0 5.558 1.399 7.112 4.158l-3.109 1.515a5.12 5.12 0 0 0-1.632-1.787 4.33 4.33 0 0 0-2.37-.7c-1.555 0-2.837.544-3.809 1.594-1.01 1.049-1.515 2.37-1.515 4.002 0 1.632.505 2.954 1.515 4.003 1.01 1.049 2.293 1.593 3.809 1.593.855 0 1.632-.233 2.37-.699.739-.467 1.283-1.05 1.632-1.788l3.11 1.516C56.115 102.6 53.745 104 50.636 104ZM71.932 103.689h-3.653V89.893h-4.974v-3.186h13.562v3.186h-4.935v13.796ZM91.713 104c-2.565 0-4.703-.816-6.373-2.487-1.672-1.671-2.526-3.77-2.526-6.296 0-2.565.854-4.663 2.526-6.295 1.67-1.671 3.808-2.487 6.373-2.487 2.565 0 4.702.816 6.373 2.487 1.671 1.632 2.526 3.77 2.526 6.334 0 2.565-.855 4.663-2.526 6.334-1.671 1.594-3.808 2.41-6.373 2.41Zm-3.731-4.78c.933 1.049 2.176 1.593 3.73 1.593 1.555 0 2.799-.544 3.731-1.593.933-1.05 1.438-2.37 1.438-4.003 0-1.632-.466-2.953-1.438-4.002-.932-1.05-2.215-1.594-3.73-1.594-1.555 0-2.798.544-3.731 1.594-.933 1.049-1.399 2.37-1.399 4.002 0 1.594.466 2.915 1.399 4.003ZM121.364 103.689h-4.158l-3.342-6.024h-2.642v6.024h-3.615V86.707h7.967c1.749 0 3.148.505 4.158 1.515 1.011 1.01 1.555 2.332 1.555 3.964 0 1.399-.35 2.526-1.089 3.38-.738.856-1.593 1.4-2.642 1.672l3.808 6.451Zm-6.334-9.21c.738 0 1.36-.195 1.826-.622.467-.427.7-.972.7-1.671 0-.7-.233-1.244-.7-1.671-.466-.427-1.088-.622-1.826-.622h-3.808v4.586h3.808Z" fill="#0F0F0F"/></symbol><symbol id="search" viewBox="0 0 25 25"><path d="M11.01 0C4.938 0 0 4.939 0 11.01c0 6.07 4.939 11.009 11.01 11.009 6.07 0 11.009-4.939 11.009-11.01C22.019 4.94 17.08 0 11.009 0Zm0 19.986c-4.95 0-8.977-4.027-8.977-8.977s4.027-8.976 8.976-8.976c4.95 0 8.977 4.027 8.977 8.976 0 4.95-4.027 8.977-8.977 8.977Z" fill="#0F0F0F"/><path d="m24.702 23.265-5.827-5.826a1.016 1.016 0 1 0-1.437 1.437l5.827 5.826a1.012 1.012 0 0 0 1.437 0 1.016 1.016 0 0 0 0-1.437Z" fill="#0F0F0F"/></symbol><symbol id="like" viewBox="0 0 28 25"><path d="M14 25c-.399 0-.783-.145-1.082-.408a325.333 325.333 0 0 0-3.184-2.748l-.005-.005c-2.821-2.412-5.257-4.496-6.952-6.548C.882 12.997 0 10.821 0 8.445c0-2.309.789-4.44 2.221-5.998C3.671.869 5.66 0 7.822 0c1.616 0 3.096.513 4.4 1.524A9.02 9.02 0 0 1 14 3.388a9.021 9.021 0 0 1 1.779-1.864C17.082.513 18.562 0 20.179 0c2.162 0 4.15.869 5.6 2.447C27.211 4.006 28 6.136 28 8.445c0 2.376-.882 4.552-2.777 6.846-1.695 2.052-4.13 4.136-6.951 6.548-.964.824-2.056 1.758-3.19 2.753A1.64 1.64 0 0 1 14 25ZM7.822 1.646c-1.699 0-3.26.68-4.395 1.916C2.275 4.817 1.64 6.551 1.64 8.445c0 1.999.74 3.786 2.4 5.796 1.604 1.942 3.99 3.983 6.752 6.346l.006.004c.965.826 2.06 1.762 3.2 2.762a383.634 383.634 0 0 1 3.21-2.767c2.763-2.362 5.148-4.403 6.752-6.345 1.66-2.01 2.4-3.797 2.4-5.796 0-1.894-.635-3.628-1.787-4.883a5.897 5.897 0 0 0-4.395-1.916c-1.244 0-2.387.397-3.396 1.18-.9.698-1.525 1.58-1.893 2.198A1.026 1.026 0 0 1 14 5.53c-.368 0-.7-.19-.89-.507-.366-.618-.993-1.5-1.892-2.198-1.009-.783-2.152-1.18-3.396-1.18Z" fill="#0F0F0F"/></symbol><symbol id="basket" viewBox="0 0 30 25"><path d="M29.01 8.327a2.035 2.035 0 0 0-1.601-.768h-5.671L18.663.518a.863.863 0 1 0-1.581.69l2.773 6.351H9.592l2.773-6.35a.863.863 0 0 0-1.581-.691L7.709 7.559H2.038c-.629 0-1.212.28-1.6.768a1.986 1.986 0 0 0-.387 1.69l3.028 13.227a2.021 2.021 0 0 0 1.987 1.57h19.315c.958 0 1.775-.646 1.987-1.57l3.028-13.228a1.986 1.986 0 0 0-.386-1.69Zm-4.63 14.76H5.067a.309.309 0 0 1-.305-.228L1.733 9.631a.263.263 0 0 1 .053-.229.313.313 0 0 1 .252-.117h4.917l-.226.517a.863.863 0 0 0 1.581.69l.528-1.207h11.77l.528 1.208a.863.863 0 1 0 1.582-.69l-.226-.518h4.917c.137 0 .216.073.251.117a.263.263 0 0 1 .054.23l-3.028 13.227a.309.309 0 0 1-.305.229Z"/></symbol><symbol id="profile" viewBox="0 0 22 25"><path d="M10.718 12.043c1.654 0 3.087-.594 4.257-1.764 1.17-1.171 1.764-2.603 1.764-4.258 0-1.654-.593-3.086-1.764-4.257C13.805.594 12.372 0 10.718 0 9.063 0 7.63.593 6.46 1.764 5.29 2.934 4.696 4.367 4.696 6.02c0 1.655.594 3.087 1.764 4.258 1.171 1.17 2.604 1.764 4.258 1.764ZM7.496 2.8c.899-.898 1.952-1.335 3.222-1.335s2.323.437 3.221 1.335c.899.898 1.335 1.952 1.335 3.221 0 1.27-.436 2.323-1.335 3.222-.898.898-1.952 1.335-3.221 1.335-1.27 0-2.323-.437-3.222-1.335-.898-.899-1.335-1.952-1.335-3.222 0-1.269.437-2.323 1.335-3.221ZM21.253 19.224a14.887 14.887 0 0 0-.202-1.58 12.45 12.45 0 0 0-.389-1.588 7.846 7.846 0 0 0-.653-1.481 5.58 5.58 0 0 0-.984-1.284 4.341 4.341 0 0 0-1.415-.888 4.889 4.889 0 0 0-1.805-.327c-.255 0-.502.105-.979.415-.293.191-.636.413-1.02.657-.327.21-.77.405-1.318.582a5.239 5.239 0 0 1-1.614.26 5.242 5.242 0 0 1-1.613-.26c-.547-.177-.991-.373-1.318-.581-.38-.243-.723-.464-1.02-.658-.477-.31-.724-.415-.979-.415-.65 0-1.257.11-1.805.327a4.337 4.337 0 0 0-1.415.889 5.583 5.583 0 0 0-.984 1.283 7.856 7.856 0 0 0-.653 1.481A12.474 12.474 0 0 0 .7 17.644c-.1.56-.169 1.092-.203 1.58-.033.478-.05.975-.05 1.477 0 1.305.415 2.361 1.233 3.14.808.77 1.877 1.159 3.177 1.159h12.038c1.3 0 2.369-.39 3.177-1.159.818-.778 1.233-1.835 1.233-3.14 0-.504-.017-1.001-.05-1.477Zm-2.192 3.556c-.534.508-1.243.755-2.167.755H4.856c-.924 0-1.633-.247-2.167-.755-.523-.498-.778-1.179-.778-2.08 0-.468.016-.93.047-1.374.03-.436.091-.915.183-1.423.09-.502.205-.974.341-1.4a6.4 6.4 0 0 1 .532-1.205 4.14 4.14 0 0 1 .723-.948c.251-.24.568-.437.941-.585a3.37 3.37 0 0 1 1.154-.223c.051.028.143.08.29.176.302.197.649.42 1.033.666.432.275.99.524 1.655.74.681.22 1.375.331 2.064.331.69 0 1.384-.111 2.064-.331.667-.216 1.224-.465 1.657-.74.393-.252.73-.47 1.031-.666.149-.096.24-.148.291-.175.421.01.81.086 1.154.222.373.148.69.345.941.585.269.257.512.576.723.948.222.39.401.796.532 1.205.137.427.252.898.342 1.4.091.51.153.988.183 1.423.031.442.047.905.047 1.375 0 .9-.255 1.58-.778 2.079Z"/></symbol><symbol id="viber" viewBox="0 0 25 25"><path d="m7.848 13.283-.331 4.886c.473 0 .678-.213.924-.47l2.22-2.226 4.598 3.536c.843.493 1.437.233 1.665-.815l3.018-14.85v-.002c.268-1.309-.45-1.82-1.272-1.5L.928 8.976c-1.21.493-1.192 1.202-.205 1.523l4.535 1.482 10.536-6.923c.496-.344.947-.154.576.191l-8.522 8.035Z" fill="#fff"/></symbol><symbol id="telegram" viewBox="0 0 25 25"><path d="M20.405 3.487A11.804 11.804 0 0 0 11.995 0C5.438 0 .102 5.336.102 11.893c0 2.095.546 4.14 1.585 5.946L0 24l6.305-1.655a11.856 11.856 0 0 0 5.684 1.446h.006C18.546 23.791 24 18.455 24 11.898c0-3.177-1.35-6.16-3.595-8.41Zm-8.41 18.3a9.867 9.867 0 0 1-5.036-1.376l-.359-.215-3.74.98.997-3.647-.236-.375a9.852 9.852 0 0 1-1.51-5.261c0-5.448 4.435-9.884 9.889-9.884a9.797 9.797 0 0 1 6.986 2.898c1.864 1.87 3.01 4.35 3.005 6.991 0 5.454-4.548 9.89-9.996 9.89Zm5.421-7.403c-.295-.15-1.757-.868-2.03-.964-.273-.102-.472-.15-.67.15-.198.3-.766.964-.943 1.168-.171.198-.348.225-.643.075-1.746-.874-2.893-1.56-4.044-3.536-.306-.525.305-.488.873-1.623.096-.199.048-.37-.027-.52-.075-.15-.67-1.613-.916-2.207-.241-.579-.487-.498-.67-.51-.171-.01-.37-.01-.567-.01a1.1 1.1 0 0 0-.793.37c-.273.3-1.04 1.018-1.04 2.48 0 1.463 1.067 2.877 1.211 3.075.15.198 2.095 3.198 5.079 4.49 1.885.814 2.625.883 3.568.744.573-.086 1.757-.718 2.003-1.414.247-.697.247-1.291.172-1.415-.07-.133-.268-.208-.563-.353Z" fill="#fff"/></symbol><symbol id="whatsap" viewBox="0 0 25 25"><path d="M2.344 0h20.312C23.95 0 25 .953 25 2.125v12.75C25 16.047 23.949 17 22.656 17H2.344C1.05 17 0 16.047 0 14.875V2.125C0 .953 1.051 0 2.344 0Zm0 1.417a.846.846 0 0 0-.3.054L12.5 9.689l10.456-8.216a.847.847 0 0 0-.3-.055H2.344Zm0 14.166h20.312c.431 0 .782-.317.782-.708V2.968L13.011 11.16a.83.83 0 0 1-.512.173.83.83 0 0 1-.512-.173L1.562 2.968v11.907c0 .39.35.708.782.708Z" fill="#fff"/><path d="m23.637 2.557-.323.254-10.425 8.192 10.748-8.446Zm0 0v.411m0-.411v.411m0 0v11.907c0 .52-.458.908-.98.908H2.343c-.523 0-.981-.389-.982-.908V2.557m22.275.411L1.363 2.557m0 0 .324.254m-.324-.254.324.254m0 0 10.425 8.192a.63.63 0 0 0 .389.13.63.63 0 0 0 .388-.13L1.686 2.811Zm.235-1.182-.279-.22.332-.125c.113-.043.238-.067.37-.067h20.312c.132 0 .257.024.37.067l.332.126-.279.219-10.455 8.216-.124.097-.124-.097L1.921 1.629ZM22.656.2H2.344C1.143.2.2 1.082.2 2.125v12.75c0 1.043.943 1.925 2.144 1.925h20.312c1.201 0 2.144-.882 2.144-1.925V2.125C24.8 1.082 23.857.2 22.656.2Z" stroke="#fff" stroke-opacity=".4" stroke-width=".4"/></symbol><symbol id="email" viewBox="0 0 25 25"><path d="M15.25 7.172c.414 0 .75-.328.75-.732V1.732A.741.741 0 0 0 15.25 1H9.625c-2.63 0-4.768 2.088-4.768 4.655v4.76H1.75a.741.741 0 0 0-.75.732v4.707c0 .404.336.732.75.732h3.107v8.682c0 .404.336.732.75.732h4.821c.415 0 .75-.328.75-.732v-8.682h3.107a.746.746 0 0 0 .736-.589l.964-4.707a.719.719 0 0 0-.155-.608.757.757 0 0 0-.58-.268h-4.071V7.172h4.07Zm-4.822 4.707h3.907l-.665 3.242h-3.242a.741.741 0 0 0-.75.732v8.682h-3.32v-8.681a.741.741 0 0 0-.75-.733H2.5V11.88h3.107c.415 0 .75-.328.75-.732V5.654c0-1.76 1.466-3.19 3.268-3.19H14.5v3.242h-4.072a.741.741 0 0 0-.75.733v4.706c0 .405.336.733.75.733Z" fill="#fff"/><path d="M16.15 6.44c0 .49-.406.882-.9.882h-3.921v2.942h3.92c.27 0 .524.118.696.322l-.115.096c.143.17.2.393.155.608l.165-4.85Zm0 0V1.732a.891.891 0 0 0-.9-.882H9.625c-2.709 0-4.918 2.152-4.918 4.805v4.61H1.75c-.494 0-.9.39-.9.881v4.707c0 .491.406.883.9.883h2.957v8.532c0 .49.406.882.9.882h4.821c.494 0 .9-.392.9-.882v-8.532h2.958a.896.896 0 0 0 .882-.709l.964-4.707.018-4.88Zm-5.721 5.589h3.722l-.603 2.942h-3.12c-.493 0-.9.392-.9.883v8.531h-3.02v-8.532a.891.891 0 0 0-.9-.882H2.65V12.03h2.957c.494 0 .9-.392.9-.883V5.655c0-1.673 1.396-3.04 3.118-3.04h4.725v2.942h-3.921c-.494 0-.9.392-.9.883v4.706c0 .491.406.883.9.883Z" stroke="#fff" stroke-opacity=".4" stroke-width=".3"/></symbol><symbol id="facebook" viewBox="0 0 25 25"><path d="M16.874-.1H6.226C2.734-.1-.1 2.863-.1 6.497v11.007c0 3.633 2.834 6.596 6.326 6.596h10.548c3.492 0 6.326-2.963 6.326-6.596V6.497c0-3.6-2.78-6.54-6.226-6.596Zm4.678 17.604c0 2.755-2.148 4.989-4.778 4.989H6.226c-2.63 0-4.778-2.234-4.778-4.99V6.498c0-2.756 2.148-4.99 4.778-4.99h10.548c2.63 0 4.778 2.234 4.778 4.99v11.007Z" fill="#fff" stroke="#fff" stroke-width=".2"/><path d="M11.5 5.338C7.973 5.338 5.11 8.33 5.11 12s2.863 6.662 6.39 6.662c3.527 0 6.389-2.992 6.389-6.662s-2.862-6.662-6.39-6.662Zm0 11.717c-2.665 0-4.84-2.263-4.84-5.055 0-2.791 2.175-5.055 4.84-5.055S16.34 9.209 16.34 12c0 2.792-2.175 5.055-4.84 5.055ZM17.94 3.007c-1.085 0-1.959.919-1.959 2.04 0 1.12.874 2.039 1.958 2.039s1.959-.92 1.959-2.04-.875-2.039-1.959-2.039Zm0 2.471a.422.422 0 0 1-.41-.432c0-.242.187-.432.41-.432.221 0 .41.19.41.432a.422.422 0 0 1-.41.432Z" fill="#fff" stroke="#fff" stroke-width=".2"/></symbol><symbol id="instagram" viewBox="0 0 25 25"><path d="M16.874-.1H6.226C2.734-.1-.1 2.863-.1 6.497v11.007c0 3.633 2.834 6.596 6.326 6.596h10.548c3.492 0 6.326-2.963 6.326-6.596V6.497c0-3.6-2.78-6.54-6.226-6.596Zm4.678 17.604c0 2.755-2.148 4.989-4.778 4.989H6.226c-2.63 0-4.778-2.234-4.778-4.99V6.498c0-2.756 2.148-4.99 4.778-4.99h10.548c2.63 0 4.778 2.234 4.778 4.99v11.007Z" fill="#fff" stroke="#fff" stroke-width=".2"/><path d="M11.5 5.338C7.973 5.338 5.11 8.33 5.11 12s2.863 6.662 6.39 6.662c3.527 0 6.389-2.992 6.389-6.662s-2.862-6.662-6.39-6.662Zm0 11.717c-2.665 0-4.84-2.263-4.84-5.055 0-2.791 2.175-5.055 4.84-5.055S16.34 9.209 16.34 12c0 2.792-2.175 5.055-4.84 5.055ZM17.94 3.007c-1.085 0-1.959.919-1.959 2.04 0 1.12.874 2.039 1.958 2.039s1.959-.92 1.959-2.04-.875-2.039-1.959-2.039Zm0 2.471a.422.422 0 0 1-.41-.432c0-.242.187-.432.41-.432.221 0 .41.19.41.432a.422.422 0 0 1-.41.432Z" fill="#fff" stroke="#fff" stroke-width=".2"/></symbol><symbol id="arrow" viewBox="0 0 13 8"><path d="M11.467 0 6.5 4.947 1.533 0 0 1.527 6.5 8 13 1.527 11.467 0Z" fill="#0F0F0F"/></symbol><symbol id="star" viewBox="0 0 37 32"><path d="M21.032 24.333 13 20.254l-8.032 4.08 1.534-8.64L0 9.574l8.981-1.26L13 .334l4.019 7.98L26 9.574l-6.502 6.12 1.534 8.64Z"/></symbol></defs></svg>