<svg aria-hidden="true" style="position:absolute;width:0;height:0;overflow:hidden" xmlns="http://www.w3.org/2000/svg">
  <defs>
    <symbol id="logo" viewBox="0 0 44 32">
      <path d="M60.5 0L29 18.1895V54.5684L60.5 72.7579L92 54.5684V18.1895L60.5 0ZM85.0369 50.5895L60.4526 64.7526L35.9158 50.5895V22.1684L60.5 7.9579L85.0842 22.1684V50.5895H85.0369Z" fill="#0F0F0F"/>
<path d="M79.1632 25.4369V47.3211L66.2316 54.9474V42.8684H54.7685V54.9474L41.8369 47.3211V25.4369L54.7685 17.8105V30.2211H66.2316V17.8105L79.1632 25.4369Z" fill="#0F0F0F"/>
<path d="M15.3114 103.689H11.6584V96.5385H3.61411V103.689H0V86.7065H3.61411V93.3907H11.6195V86.7065H15.2725V103.689H15.3114Z" fill="#0F0F0F"/>
<path d="M35.1302 103.689H23.1221V86.7065H35.1302V89.8932H26.7362V93.4684H34.9748V96.655H26.7362V100.502H35.1302V103.689Z" fill="#0F0F0F"/>
<path d="M50.6367 104C48.0719 104 45.8956 103.184 44.1857 101.552C42.4758 99.9194 41.582 97.8209 41.582 95.2172C41.582 92.6135 42.437 90.515 44.1857 88.8828C45.8956 87.2507 48.0719 86.4346 50.6367 86.4346C53.8234 86.4346 56.1939 87.8336 57.7483 90.5927L54.6394 92.1083C54.2508 91.4088 53.7068 90.787 53.0073 90.3207C52.2689 89.8544 51.4917 89.6212 50.6367 89.6212C49.0823 89.6212 47.7999 90.1653 46.8283 91.2145C45.8179 92.2638 45.3127 93.5851 45.3127 95.2172C45.3127 96.8494 45.8179 98.1707 46.8283 99.2199C47.8387 100.269 49.1211 100.813 50.6367 100.813C51.4917 100.813 52.2689 100.58 53.0073 100.114C53.7456 99.6474 54.2897 99.0645 54.6394 98.3261L57.7483 99.8417C56.1162 102.601 53.7456 104 50.6367 104Z" fill="#0F0F0F"/>
<path d="M71.9319 103.689H68.2789V89.8932H63.3047V86.7065H76.8673V89.8932H71.9319V103.689Z" fill="#0F0F0F"/>
<path d="M91.7127 104C89.1479 104 87.0105 103.184 85.3395 101.513C83.6684 99.8417 82.8135 97.7432 82.8135 95.2172C82.8135 92.6524 83.6684 90.5539 85.3395 88.9217C87.0105 87.2507 89.1479 86.4346 91.7127 86.4346C94.2776 86.4346 96.415 87.2507 98.086 88.9217C99.757 90.5539 100.612 92.6912 100.612 95.2561C100.612 97.8209 99.757 99.9195 98.086 101.59C96.415 103.184 94.2776 104 91.7127 104ZM87.982 99.2199C88.9147 100.269 90.1583 100.813 91.7127 100.813C93.2672 100.813 94.5107 100.269 95.4434 99.2199C96.3761 98.1707 96.8813 96.8494 96.8813 95.2172C96.8813 93.5851 96.4149 92.2638 95.4434 91.2145C94.5107 90.1653 93.2283 89.6212 91.7127 89.6212C90.1583 89.6212 88.9147 90.1653 87.982 91.2145C87.0494 92.2638 86.583 93.5851 86.583 95.2172C86.583 96.8105 87.0494 98.1318 87.982 99.2199Z" fill="#0F0F0F"/>
<path d="M121.364 103.689H117.206L113.864 97.6654H111.222V103.689H107.607V86.7065H115.574C117.323 86.7065 118.722 87.2117 119.732 88.2221C120.743 89.2325 121.287 90.5538 121.287 92.186C121.287 93.585 120.937 94.712 120.198 95.5669C119.46 96.4219 118.605 96.9659 117.556 97.238L121.364 103.689ZM115.03 94.4788C115.768 94.4788 116.39 94.2845 116.856 93.857C117.323 93.4296 117.556 92.8855 117.556 92.186C117.556 91.4865 117.323 90.9424 116.856 90.515C116.39 90.0875 115.768 89.8932 115.03 89.8932H111.222V94.4788H115.03Z" fill="#0F0F0F"/>
    </symbol>
    <symbol id="search" viewBox="0 0 32 32">
      <path d="M14 25C13.6014 25 13.2171 24.8551 12.9176 24.5918C11.7864 23.5992 10.6959 22.6664 9.73373 21.8436L9.72882 21.8393C6.90793 19.4268 4.47198 17.3434 2.7771 15.2911C0.882477 12.9967 0 10.8214 0 8.44489C0 6.13595 0.78891 4.00581 2.22125 2.44657C3.67068 0.868907 5.65952 0 7.82202 0C9.43829 0 10.9185 0.512812 12.2214 1.52407C12.8789 2.03452 13.4749 2.65925 14 3.38794C14.5253 2.65925 15.1211 2.03452 15.7788 1.52407C17.0817 0.512812 18.5619 0 20.1782 0C22.3405 0 24.3295 0.868907 25.779 2.44657C27.2113 4.00581 28 6.13595 28 8.44489C28 10.8214 27.1177 12.9967 25.2231 15.2909C23.5282 17.3434 21.0925 19.4266 18.272 21.8389C17.3082 22.663 16.2159 23.5973 15.0822 24.5922C14.7829 24.8551 14.3984 25 14 25ZM7.82202 1.64606C6.12308 1.64606 4.56235 2.32652 3.42694 3.56224C2.27466 4.81661 1.63998 6.55057 1.63998 8.44489C1.63998 10.4436 2.38019 12.2312 4.03983 14.2408C5.64392 16.1834 8.02988 18.2239 10.7924 20.5866L10.7976 20.5909C11.7634 21.417 12.8582 22.3534 13.9977 23.3533C15.144 22.3515 16.2405 21.4135 17.2082 20.5862C19.9706 18.2235 22.3563 16.1834 23.9604 14.2408C25.6198 12.2312 26.36 10.4436 26.36 8.44489C26.36 6.55057 25.7253 4.81661 24.5731 3.56224C23.4379 2.32652 21.8769 1.64606 20.1782 1.64606C18.9336 1.64606 17.791 2.0431 16.782 2.82604C15.8829 3.52408 15.2565 4.40649 14.8893 5.02393C14.7005 5.34143 14.3681 5.53095 14 5.53095C13.6319 5.53095 13.2995 5.34143 13.1107 5.02393C12.7437 4.40649 12.1173 3.52408 11.218 2.82604C10.209 2.0431 9.06638 1.64606 7.82202 1.64606Z" fill="#0F0F0F"/>
    </symbol>
    <symbol id="like" viewBox="0 0 37 32">
      <path d="M29.0096 8.32689C28.6208 7.83907 28.0374 7.55921 27.409 7.55921H21.738L18.6628 0.517694C18.4722 0.0811109 17.9636 -0.118402 17.527 0.0723689C17.0903 0.263025 16.8909 0.771614 17.0817 1.20825L19.8552 7.55927H9.59154L12.3651 1.20825C12.5558 0.771614 12.3564 0.263083 11.9198 0.0723689C11.4832 -0.118402 10.9746 0.0809958 10.784 0.517694L7.70879 7.55927H2.03775C1.40936 7.55927 0.826008 7.83907 0.437161 8.32695C0.0554463 8.80592 -0.0854035 9.42166 0.0507303 10.0165L3.0792 23.2445C3.29068 24.1682 4.10777 24.8132 5.06623 24.8132H24.3805C25.339 24.8132 26.1561 24.1682 26.3676 23.2445L29.396 10.0164C29.5322 9.4216 29.3913 8.80586 29.0096 8.32689ZM24.3805 23.0878H5.06623C4.91974 23.0878 4.79143 22.9917 4.76112 22.8593L1.73265 9.63141C1.70889 9.5276 1.74875 9.44949 1.78648 9.40228C1.82145 9.35834 1.90064 9.28466 2.03775 9.28466H6.95531L6.72934 9.80211C6.53868 10.2387 6.73802 10.7473 7.17466 10.938C7.28704 10.9871 7.40414 11.0103 7.51945 11.0103C7.85199 11.0103 8.16889 10.8169 8.31049 10.4927L8.83806 9.28478H20.6088L21.1364 10.4927C21.278 10.817 21.5949 11.0103 21.9274 11.0103C22.0427 11.0103 22.1598 10.9871 22.2722 10.938C22.7089 10.7473 22.9083 10.2387 22.7175 9.80211L22.4916 9.28466H27.4091C27.5462 9.28466 27.6254 9.35834 27.6604 9.40228C27.6981 9.44955 27.738 9.52765 27.7142 9.63135L24.6858 22.8594C24.6554 22.9917 24.527 23.0878 24.3805 23.0878Z" fill="#0F0F0F"/>
    </symbol>
    <symbol id="basket" viewBox="0 0 37 32">
      <path d="M10.7178 12.0426C12.3722 12.0426 13.8046 11.4492 14.9754 10.2785C16.1457 9.10797 16.7393 7.67574 16.7393 6.02112C16.7393 4.36707 16.1459 2.93465 14.9752 1.76373C13.8045 0.593376 12.372 0 10.7178 0C9.06316 0 7.63094 0.593376 6.4604 1.76392C5.28986 2.93446 4.69629 4.36687 4.69629 6.02112C4.69629 7.67574 5.28986 9.10816 6.4604 10.2787C7.63132 11.4491 9.06374 12.0426 10.7178 12.0426ZM7.49647 2.7998C8.39464 1.90163 9.44826 1.46503 10.7178 1.46503C11.9871 1.46503 13.0409 1.90163 13.9393 2.7998C14.8375 3.69816 15.2743 4.75197 15.2743 6.02112C15.2743 7.29065 14.8375 8.34427 13.9393 9.24263C13.0409 10.141 11.9871 10.5776 10.7178 10.5776C9.44864 10.5776 8.39502 10.1408 7.49647 9.24263C6.59811 8.34446 6.16132 7.29065 6.16132 6.02112C6.16132 4.75197 6.59811 3.69816 7.49647 2.7998Z" fill="#0F0F0F"/>
<path d="M21.2534 19.2237C21.2196 18.7366 21.1513 18.2052 21.0508 17.6441C20.9493 17.0787 20.8187 16.5443 20.6623 16.0558C20.5005 15.5509 20.281 15.0523 20.0092 14.5746C19.7275 14.0786 19.3964 13.6468 19.0248 13.2915C18.6363 12.9197 18.1606 12.6209 17.6105 12.4028C17.0623 12.186 16.4549 12.0761 15.805 12.0761C15.5498 12.0761 15.303 12.1808 14.8264 12.4912C14.533 12.6825 14.1899 12.9037 13.8069 13.1484C13.4794 13.3571 13.0357 13.5526 12.4878 13.7296C11.9531 13.9026 11.4103 13.9903 10.8743 13.9903C10.3388 13.9903 9.79592 13.9026 9.26091 13.7296C8.7135 13.5528 8.26966 13.3573 7.94274 13.1486C7.56337 12.9062 7.22005 12.6849 6.92231 12.491C6.44604 12.1806 6.19923 12.0759 5.94403 12.0759C5.29401 12.0759 4.68671 12.186 4.13873 12.403C3.58903 12.6207 3.11314 12.9195 2.72424 13.2917C2.35268 13.6472 2.02157 14.0788 1.74004 14.5746C1.46863 15.0523 1.2489 15.5507 1.08716 16.056C0.930946 16.5445 0.800293 17.0787 0.698822 17.6441C0.598114 18.2044 0.530022 18.736 0.496262 19.2243C0.463074 19.7017 0.446289 20.1986 0.446289 20.7006C0.446289 22.0056 0.861137 23.0621 1.6792 23.8412C2.48715 24.6101 3.55603 24.9999 4.85627 24.9999H16.8939C18.1938 24.9999 19.2627 24.6101 20.0708 23.8412C20.8891 23.0626 21.3039 22.0058 21.3039 20.7004C21.3037 20.1967 21.2867 19.6998 21.2534 19.2237ZM19.0607 22.7798C18.5268 23.2879 17.818 23.5349 16.8937 23.5349H4.85627C3.93178 23.5349 3.22301 23.2879 2.68933 22.78C2.16576 22.2816 1.91132 21.6012 1.91132 20.7006C1.91132 20.2321 1.92677 19.7696 1.95767 19.3256C1.98781 18.8899 2.04942 18.4114 2.14078 17.9029C2.231 17.4007 2.34582 16.9294 2.48238 16.5027C2.61342 16.0936 2.79214 15.6884 3.01377 15.2982C3.2253 14.9263 3.46867 14.6072 3.73723 14.3501C3.98843 14.1095 4.30505 13.9127 4.67812 13.7651C5.02316 13.6285 5.41093 13.5537 5.83188 13.5425C5.88319 13.5698 5.97455 13.6218 6.12256 13.7183C6.42373 13.9146 6.77087 14.1385 7.15462 14.3836C7.58721 14.6594 8.14454 14.9085 8.81039 15.1235C9.49113 15.3436 10.1854 15.4554 10.8745 15.4554C11.5637 15.4554 12.2581 15.3436 12.9385 15.1237C13.6049 14.9083 14.162 14.6594 14.5952 14.3832C14.9879 14.1322 15.3253 13.9148 15.6265 13.7183C15.7745 13.622 15.8659 13.5698 15.9172 13.5425C16.3383 13.5537 16.7261 13.6285 17.0713 13.7651C17.4442 13.9127 17.7608 14.1097 18.012 14.3501C18.2806 14.607 18.5239 14.9261 18.7355 15.2984C18.9573 15.6884 19.1362 16.0938 19.2671 16.5025C19.4038 16.9297 19.5188 17.4009 19.6088 17.9027C19.7 18.4121 19.7618 18.8909 19.792 19.3258V19.3261C19.823 19.7685 19.8387 20.2308 19.8389 20.7006C19.8387 21.6014 19.5842 22.2816 19.0607 22.7798Z" fill="#0F0F0F"/>
    </symbol>
    <symbol id="profile" viewBox="0 0 37 32">
    <path d="M20.1917 2.337C19.5965 1.78863 17.1874 0.0404148 11.8162 0.0169803C11.8162 0.0169803 5.48417 -0.36266 2.40019 2.46823C0.684776 4.18364 0.0801641 6.70052 0.0145473 9.81731C-0.0510694 12.9341 -0.130747 18.774 5.49823 20.3582H5.50292L5.49823 22.7766C5.49823 22.7766 5.46074 23.7562 6.10753 23.953C6.88556 24.1968 7.34488 23.4515 8.09009 22.6501C8.49786 22.2095 9.06029 21.5627 9.48679 21.0706C13.3394 21.394 16.2969 20.6534 16.6343 20.5457C17.4124 20.2926 21.8134 19.7301 22.5258 13.8902C23.2663 7.86287 22.1696 4.0571 20.1917 2.337ZM20.8432 13.4497C20.2386 18.3241 16.6718 18.6334 16.0157 18.8443C15.7344 18.9334 13.1332 19.5801 9.86643 19.3692C9.86643 19.3692 7.42924 22.3079 6.66996 23.0719C6.42155 23.3203 6.14971 23.2969 6.1544 22.8047C6.1544 22.4813 6.17315 18.7881 6.17315 18.7881C6.16846 18.7881 6.16846 18.7881 6.17315 18.7881C1.40187 17.4663 1.68309 12.4935 1.73464 9.8923C1.7862 7.29107 2.27833 5.15852 3.73127 3.72433C6.34188 1.35744 11.7178 1.70896 11.7178 1.70896C16.2594 1.7277 18.4341 3.09628 18.9403 3.5556C20.6135 4.98979 21.4665 8.42061 20.8432 13.4497ZM14.3284 9.66264C14.3471 10.0657 13.7425 10.0938 13.7238 9.69077C13.6722 8.65964 13.1895 8.15814 12.1958 8.1019C11.7928 8.07847 11.8303 7.47386 12.2286 7.49729C13.5363 7.56759 14.2628 8.3175 14.3284 9.66264ZM15.2798 10.1923C15.3267 8.20501 14.0847 6.64896 11.7271 6.47554C11.3287 6.44742 11.3709 5.84281 11.7693 5.87093C14.4877 6.06778 15.936 7.93786 15.8844 10.2063C15.8797 10.6094 15.2704 10.5907 15.2798 10.1923ZM17.4827 10.8203C17.4874 11.2234 16.8781 11.2281 16.8781 10.825C16.8499 7.00516 14.3049 4.92418 11.2163 4.90074C10.8179 4.89605 10.8179 4.29613 11.2163 4.29613C14.6705 4.31956 17.4499 6.7052 17.4827 10.8203ZM16.953 15.4182V15.4275C16.4469 16.3181 15.5001 17.3023 14.5252 16.9883L14.5159 16.9742C13.5269 16.6977 11.1975 15.4978 9.72583 14.3261C8.96655 13.7262 8.27288 13.0185 7.73858 12.3389C7.25583 11.7343 6.76839 11.0172 6.29501 10.1548C5.2967 8.35031 5.07641 7.54416 5.07641 7.54416C4.76239 6.56928 5.74195 5.62253 6.63715 5.11634H6.64653C7.07772 4.89137 7.49017 4.96636 7.7667 5.29913C7.7667 5.29913 8.34788 5.99279 8.59628 6.33494C8.83063 6.65365 9.14465 7.16452 9.30869 7.45042C9.59459 7.96129 9.41649 8.48154 9.13528 8.69714L8.57285 9.14708C8.28695 9.37674 8.32444 9.80325 8.32444 9.80325C8.32444 9.80325 9.15871 12.9575 12.2755 13.7543C12.2755 13.7543 12.702 13.7918 12.9317 13.5059L13.3816 12.9435C13.5972 12.6623 14.1175 12.4842 14.6283 12.7701C15.3173 13.1591 16.1938 13.7637 16.7749 14.3121C17.103 14.5792 17.178 14.987 16.953 15.4182Z" fill="white"/>
    </symbol>
    <symbol id="viber" viewBox="0 0 37 32">
    <path d="M7.84765 13.2834L7.51682 18.1694C7.99015 18.1694 8.19515 17.9559 8.44098 17.6995L10.6601 15.4726L15.2585 19.0085C16.1018 19.502 16.696 19.2421 16.9235 18.1939L19.9418 3.34336L19.9426 3.34249C20.2101 2.03349 19.4918 1.52161 18.6701 1.84274L0.928482 8.97486C-0.282352 9.46836 -0.264018 10.1771 0.722648 10.4982L5.25848 11.9796L15.7943 5.05749C16.2901 4.71274 16.741 4.90349 16.3701 5.24824L7.84765 13.2834Z" fill="white"/></symbol>
    <symbol id="telegram" viewBox="0 0 37 32">
    <path d="M20.4054 3.4875C18.1607 1.2375 15.1714 0 11.9946 0C5.4375 0 0.101786 5.33571 0.101786 11.8929C0.101786 13.9875 0.648214 16.0339 1.6875 17.8393L0 24L6.30536 22.3446C8.04107 23.2929 9.99643 23.7911 11.9893 23.7911H11.9946C18.5464 23.7911 24 18.4554 24 11.8982C24 8.72143 22.65 5.7375 20.4054 3.4875ZM11.9946 21.7875C10.2161 21.7875 8.475 21.3107 6.95893 20.4107L6.6 20.1964L2.86071 21.1768L3.85714 17.5286L3.62143 17.1536C2.63036 15.5786 2.11071 13.7625 2.11071 11.8929C2.11071 6.44464 6.54643 2.00893 12 2.00893C14.6411 2.00893 17.1214 3.0375 18.9857 4.90714C20.85 6.77679 21.9964 9.25714 21.9911 11.8982C21.9911 17.3518 17.4429 21.7875 11.9946 21.7875ZM17.4161 14.3839C17.1214 14.2339 15.6589 13.5161 15.3857 13.4196C15.1125 13.3179 14.9143 13.2696 14.7161 13.5696C14.5179 13.8696 13.95 14.5339 13.7732 14.7375C13.6018 14.9357 13.425 14.9625 13.1304 14.8125C11.3839 13.9393 10.2375 13.2536 9.08571 11.2768C8.78036 10.7518 9.39107 10.7893 9.95893 9.65357C10.0554 9.45536 10.0071 9.28393 9.93214 9.13393C9.85714 8.98393 9.2625 7.52143 9.01607 6.92679C8.775 6.34821 8.52857 6.42857 8.34643 6.41786C8.175 6.40714 7.97679 6.40714 7.77857 6.40714C7.58036 6.40714 7.25893 6.48214 6.98571 6.77679C6.7125 7.07679 5.94643 7.79464 5.94643 9.25714C5.94643 10.7196 7.0125 12.1339 7.15714 12.3321C7.30714 12.5304 9.25179 15.5304 12.2357 16.8214C14.1214 17.6357 14.8607 17.7054 15.8036 17.5661C16.3768 17.4804 17.5607 16.8482 17.8071 16.1518C18.0536 15.4554 18.0536 14.8607 17.9786 14.7375C17.9089 14.6036 17.7107 14.5286 17.4161 14.3839Z" fill="white"/></symbol>
    <symbol id="whatsap" viewBox="0 0 37 32">
    <path d="M2.34377 0H22.6562C23.9487 0 25 0.953208 25 2.12501V14.875C25 16.0468 23.9487 17 22.6562 17H2.34377C1.05133 17 0 16.0468 0 14.875V2.12501C0 0.953208 1.05133 0 2.34377 0ZM2.34377 1.41666C2.23762 1.41666 2.13664 1.43663 2.04432 1.4715L12.5 9.6877L22.9557 1.4715C22.8634 1.43667 22.7624 1.41666 22.6563 1.41666H2.34377ZM2.34377 15.5833H22.6562C23.0873 15.5833 23.4375 15.2658 23.4375 14.8749V2.96821L13.0119 11.1604C12.8647 11.2759 12.6823 11.3333 12.5 11.3333C12.3177 11.3333 12.1353 11.2759 11.9881 11.1604L1.56249 2.96821V14.875C1.56255 15.2658 1.91271 15.5833 2.34377 15.5833Z" fill="white"/>
<path d="M23.6375 2.5567L23.3139 2.81095L12.8885 11.003L23.6375 2.5567ZM23.6375 2.5567V2.96821M23.6375 2.5567V2.96821M23.6375 2.96821V14.8749C23.6375 15.3943 23.1788 15.7833 22.6562 15.7833H2.34377C1.82114 15.7833 1.36256 15.3943 1.36249 14.875V2.96821V2.5567M23.6375 2.96821L1.36249 2.5567M1.36249 2.5567L1.68606 2.81095M1.36249 2.5567L1.68606 2.81095M1.68606 2.81095L12.1115 11.003C12.2209 11.0888 12.3589 11.1333 12.5 11.1333C12.641 11.1333 12.779 11.0888 12.8884 11.0031L1.68606 2.81095ZM1.92075 1.62875L1.64198 1.40969L1.97365 1.2844C2.0875 1.24139 2.21238 1.21666 2.34377 1.21666H22.6563C22.7877 1.21666 22.9126 1.24146 23.0263 1.28437L23.3582 1.40957L23.0793 1.62875L12.6236 9.84496L12.5 9.94206L12.3764 9.84496L1.92075 1.62875ZM22.6562 0.2H2.34377C1.1429 0.2 0.200001 1.08165 0.200001 2.12501V14.875C0.200001 15.9183 1.1429 16.8 2.34377 16.8H22.6562C23.8571 16.8 24.8 15.9183 24.8 14.875V2.12501C24.8 1.08165 23.8571 0.2 22.6562 0.2Z" stroke="white" stroke-opacity="0.4" stroke-width="0.4"/></symbol>
    <symbol id="email" viewBox="0 0 37 32">
    <path d="M15.2498 7.17199C15.6642 7.17199 16 6.84393 16 6.43957V1.73242C16 1.32787 15.6642 1 15.2498 1H9.62479C6.99582 1 4.85701 3.08817 4.85701 5.65488V10.4141H1.75019C1.33583 10.4141 1 10.742 1 11.1465V15.8535C1 16.258 1.33583 16.5859 1.75019 16.5859H4.85701V25.2676C4.85701 25.6721 5.19283 26 5.60719 26H10.4285C10.8429 26 11.1787 25.6721 11.1787 25.2676V16.5859H14.2855C14.6432 16.5859 14.9511 16.3395 15.0212 15.9971L15.9853 11.2901C16.0295 11.075 15.9725 10.8518 15.8298 10.6821C15.6874 10.5125 15.4745 10.4141 15.2498 10.4141H11.1787V7.17199H15.2498ZM10.4285 11.8789H14.3347L13.6705 15.1211H10.4285C10.0141 15.1211 9.67832 15.4489 9.67832 15.8535V24.5352H6.35738V15.8535C6.35738 15.4489 6.02155 15.1211 5.60719 15.1211H2.50037V11.8789H5.60719C6.02155 11.8789 6.35738 11.5511 6.35738 11.1465V5.65488C6.35738 3.89593 7.82317 2.46484 9.62479 2.46484H14.4996V5.70715H10.4285C10.0141 5.70715 9.67832 6.03502 9.67832 6.43957V11.1465C9.67832 11.5511 10.0141 11.8789 10.4285 11.8789Z" fill="white"/>
<path d="M16.15 6.43957C16.15 6.93011 15.7436 7.32199 15.2498 7.32199H11.3287V10.2641H15.2498C15.5181 10.2641 15.7733 10.3816 15.9447 10.5856C15.9447 10.5856 15.9447 10.5856 15.9447 10.5856L15.8298 10.6821C15.9725 10.8518 16.0295 11.075 15.9853 11.2901L16.15 6.43957ZM16.15 6.43957V1.73242C16.15 1.24166 15.7436 0.85 15.2498 0.85H9.62479C6.91639 0.85 4.70701 3.00195 4.70701 5.65488V10.2641H1.75019C1.25639 10.2641 0.85 10.6558 0.85 11.1465V15.8535C0.85 16.3442 1.25639 16.7359 1.75019 16.7359H4.70701V25.2676C4.70701 25.7583 5.1134 26.15 5.60719 26.15H10.4285C10.9223 26.15 11.3287 25.7583 11.3287 25.2676V16.7359H14.2855C14.712 16.7359 15.0833 16.4417 15.1682 16.0272L16.1323 11.3203L16.15 6.43957ZM10.4285 12.0289H14.1509L13.5481 14.9711H10.4285C9.93471 14.9711 9.52832 15.3627 9.52832 15.8535V24.3852H6.50738V15.8535C6.50738 15.3627 6.10099 14.9711 5.60719 14.9711H2.65037V12.0289H5.60719C6.10099 12.0289 6.50738 11.6373 6.50738 11.1465V5.65488C6.50738 3.98214 7.90261 2.61484 9.62479 2.61484H14.3496V5.55715H10.4285C9.93471 5.55715 9.52832 5.94881 9.52832 6.43957V11.1465C9.52832 11.6373 9.93471 12.0289 10.4285 12.0289Z" stroke="white" stroke-opacity="0.4" stroke-width="0.3"/></symbol>
    <symbol id="facebook" viewBox="0 0 37 32">
    <path d="M16.8741 -0.0991891V-0.1H16.7741H6.22588C2.73368 -0.1 -0.1 2.86313 -0.1 6.49657V17.5036C-0.1 21.1368 2.73368 24.1 6.22588 24.1H16.7743C20.2663 24.1 23.1 21.1368 23.1 17.5036V6.49657C23.1 2.89787 20.3202 -0.0432687 16.8741 -0.0991891ZM21.5516 17.5036C21.5516 20.2587 19.4044 22.493 16.7741 22.493H6.22588C3.59556 22.493 1.44836 20.2587 1.44836 17.5036V6.49657C1.44836 3.74129 3.59556 1.50698 6.22588 1.50698H16.7743C19.4044 1.50698 21.5516 3.74129 21.5516 6.49657V17.5036Z" fill="white" stroke="white" stroke-width="0.2"/>
<path d="M11.4998 5.33774C7.97286 5.33774 5.11094 8.33035 5.11094 12C5.11094 15.6697 7.97286 18.6624 11.4998 18.6624C15.0268 18.6624 17.8887 15.6697 17.8887 12C17.8887 8.33035 15.0268 5.33774 11.4998 5.33774ZM11.4998 17.0554C8.83492 17.0554 6.65929 14.7916 6.65929 12C6.65929 9.2087 8.83492 6.94472 11.4998 6.94472C14.1649 6.94472 16.3403 9.2087 16.3403 12C16.3403 14.7916 14.1649 17.0554 11.4998 17.0554Z" fill="white" stroke="white" stroke-width="0.2"/>
<path d="M17.9393 3.00718C16.8554 3.00718 15.9811 3.92594 15.9811 5.04626C15.9811 6.16676 16.8554 7.08553 17.9393 7.08553C19.0233 7.08553 19.8978 6.16677 19.8978 5.04626C19.8978 3.92574 19.0233 3.00718 17.9393 3.00718ZM17.9393 5.47836C17.7174 5.47836 17.5294 5.28842 17.5294 5.04626C17.5294 4.80394 17.7174 4.61416 17.9393 4.61416C18.1615 4.61416 18.3495 4.80396 18.3495 5.04626C18.3495 5.2884 18.1615 5.47836 17.9393 5.47836Z" fill="white" stroke="white" stroke-width="0.2"/></symbol>
    <symbol id="instagram" viewBox="0 0 37 32">
    <path d="M16.8741 -0.0991891V-0.1H16.7741H6.22588C2.73368 -0.1 -0.1 2.86313 -0.1 6.49657V17.5036C-0.1 21.1368 2.73368 24.1 6.22588 24.1H16.7743C20.2663 24.1 23.1 21.1368 23.1 17.5036V6.49657C23.1 2.89787 20.3202 -0.0432687 16.8741 -0.0991891ZM21.5516 17.5036C21.5516 20.2587 19.4044 22.493 16.7741 22.493H6.22588C3.59556 22.493 1.44836 20.2587 1.44836 17.5036V6.49657C1.44836 3.74129 3.59556 1.50698 6.22588 1.50698H16.7743C19.4044 1.50698 21.5516 3.74129 21.5516 6.49657V17.5036Z" fill="white" stroke="white" stroke-width="0.2"/>
<path d="M11.4998 5.33774C7.97286 5.33774 5.11094 8.33035 5.11094 12C5.11094 15.6697 7.97286 18.6624 11.4998 18.6624C15.0268 18.6624 17.8887 15.6697 17.8887 12C17.8887 8.33035 15.0268 5.33774 11.4998 5.33774ZM11.4998 17.0554C8.83492 17.0554 6.65929 14.7916 6.65929 12C6.65929 9.2087 8.83492 6.94472 11.4998 6.94472C14.1649 6.94472 16.3403 9.2087 16.3403 12C16.3403 14.7916 14.1649 17.0554 11.4998 17.0554Z" fill="white" stroke="white" stroke-width="0.2"/>
<path d="M17.9393 3.00718C16.8554 3.00718 15.9811 3.92594 15.9811 5.04626C15.9811 6.16676 16.8554 7.08553 17.9393 7.08553C19.0233 7.08553 19.8978 6.16677 19.8978 5.04626C19.8978 3.92574 19.0233 3.00718 17.9393 3.00718ZM17.9393 5.47836C17.7174 5.47836 17.5294 5.28842 17.5294 5.04626C17.5294 4.80394 17.7174 4.61416 17.9393 4.61416C18.1615 4.61416 18.3495 4.80396 18.3495 5.04626C18.3495 5.2884 18.1615 5.47836 17.9393 5.47836Z" fill="white" stroke="white" stroke-width="0.2"/></symbol>
    <symbol id="arrow" viewBox="0 0 37 32">
    <path d="M11.4671 -1.45631e-07L6.5 4.94673L1.53293 -1.94682e-08L-2.45768e-08 1.52661L6.5 8L13 1.52661L11.4671 -1.45631e-07Z" fill="#0F0F0F"/>
    </symbol>
    <symbol id="star" viewBox="0 0 37 32">
    <path d="M21.0321 24.3333L13 20.2541L4.96795 24.3333L6.5019 15.6936L0 9.57468L8.98121 8.31449L13 0.333313L17.0188 8.31449L26 9.57468L19.4981 15.6936L21.0321 24.3333Z" fill="black"/>
    </symbol>
  </defs>
</svg>


